<svg xmlns="http://www.w3.org/2000/svg" viewBox="0 0 1194 1194">
  <defs>
    <style>
      .bg { fill: #FF5722; }
      .char { fill: #FFFFFF; }
    </style>
  </defs>
  <rect class="bg" x="0" y="0" width="1194" height="1194" rx="120"/>
  <g transform="translate(50, 50)">
    <path class="char" d="M285,103c52.49.44,105.04-.56,157.54-.05,3.26.03,6.61.79,10.07.84s18.65-2.46,19.43.87l-1.04,21.33h-46v48h69.5l1.5-1.5v-21.5c7.14,1.01,17.15-2.8,23,1.5v21.5h46c.87,3.59-1.21,2.06-2,3.99h2.99v18.51l1.5,1.5h21.5v22h-71l1,48h23v69l-23.56.94c-.93,1.35-.48,11-.47,13.63,0,8.6,2.04,20.99,1.08,28.99-.17,1.45-.12,2.57-1.55,3.45h-21.5v-23h-94v-21.5l1.5-1.5h68l1.5-1.5v-22.5h46c-.23-3.45,1.91-21.27.06-22.56l-46.06-1.44v-46h21.5l1.5-1.5v-21c0-.37-1.32-1.5-1.01-2.51l-140.99,2.51v21.5h-22.5c-.54,0-1.6,1.7-1.55,2.53l1.01,44.41-22.96,1.06v-24l-46.96.04.4,47.02,22.56.94v23h22.5l1.5,2.5,1.01,43.51c5.92-1.53,12.1-.86,18.07-.44,1.95.14,4.46,1.72,6.77,1.88,6.37.44,15.55-2.43,21.15,1.06v21.5h116.5l1.5-1.5v-21.5h22v46l47,1v22h-22.5c-1.43.88-1.38,1.99-1.55,3.45-1.08,9.23.85,19.88,1.06,29.05.09,4.13-2.19,11.45-.1,14.85,1.41,2.31,19.77.33,23.08.64v70l23.99,1.01.97-26.56c-.82-22.66-1.36-45.67.03-68.43l-23.99-1.02v-22h23v-140h24v-24h351v22.5l1.5,1.5h22.5l-1,350h-23v24h-258v23h-93v-21.5l-1.5-1.5h-22.5c.22,12.06-1.7,25.61-.75,37.46.26,3.27.35,8.35,2.25,10.54h21.5v23h23l1.07,23.98c1.27-.61,2.49.02,3.43.02h19.5v23h23v46l24,1v23l70,1v22.5c3.38,3.05,21.7-.72,24,1.54v20.97s-24,.99-24,.99v23h-45.5c-3.35,0,1.33,20.38-1.5,23h-47v23l-68.91-.09-.09-45.91h-24v-23l-23-1v-46h-24v-24h-23v-22.5l-1.5-1.5h-22.5v-23h-47v47h-22.5l-1.5,1.5v21.5l-23,1v23h-48s0,23,0,23h-46v23.5l1.5,1.5h21.5v45h-92v-21.5l-1.5-1.5h-22.5v-45.5l-1.5-1.5h-22.5v-69h22.5l1.5-1.5v-21.5c12.96-.87,26.61,1.3,39.47-.28,2.51-.31,5.84-.34,7.53-2.22v-21.5h23l-.07-70.93-22.9-.1-.03-280.97h23v-23h24v-24h21.5l1.5-1.5v-22.5h-23.01s-.99-23-.99-23h-23v-24h-23v-186h23v-24c4.77.13,10.43.67,15.13.4,2.92-.17,7.03.16,8.87-1.9v-22.5ZM729.34,313.14v94.86h71.66v-94.86h-71.66ZM355,431h-48v23h-17.5c-1.84,0-4.53-.05-5.5,1.5v22.5h-23.99s1,118.01,1,118.01h22.99s0,22.99,0,22.99h24v-23l21.5.93,1.5,22.07h24v-47l23.09.52.91-23.52h23v-47.01s-24-1-24-1l.04-45.23c-2.24-4.25-19.09.91-23.04-2.26v-22.5ZM471.5,431h-69l-1.5,1.5v22.5l23.91,1.09.08,45.91,66.53.49,4.47-1.99v-45.5l-23.98-1.02,1.03-20.45c0-.9-.77-2.29-1.54-2.53ZM449,549l-24.09.47.09,21.53h-21.5c-.33,0-1.52,1.32-2.5,1v23h-23v48h47v23l140.41.12.59-71.12h-70v-23h-47v-23ZM660,596v-23.5l-2.3-1.33-44.76.26-.94,23.56h-23v71l24,1.01v22.99h47v-23c.98.32,2.17-1,2.5-1h20c1.71-1.53,1.48-5.92,1.52-8.5.07-4.72-.75-10.7-1.02-15.5h-23l1.01-22.99-24.99-1.05,1.01-18.48-1.02-3.47h24Z"/>
    <rect class="char" x="285" y="549" width="22.57" height="46"/>
    <path class="char" d="M402,244h22c-.78,13.98,2.68,29.7,1.05,43.55-.17,1.46-.12,2.57-1.55,3.45h-21.5v-47Z"/>
    <path class="char" d="M401,337h-22l-1-23h22.5c.9.52.97,1.09,1.17,1.98.94,4.21-2.05,15.71-.67,21.02Z"/>
    <path class="char" d="M495,128v22h-22v-23c7.23,1.43,14.84-1.45,22,1Z"/>
  </g>
</svg>
